<svg width="196" height="30" viewBox="0 0 196 30" fill="none" xmlns="http://www.w3.org/2000/svg">
<g clip-path="url(#clip0_1334_4284)">
<path d="M24.0482 17.2008L26.1338 5.44431C26.242 4.83139 25.8509 4.2462 25.2463 4.10198C24.1092 3.82741 22.6892 3.57503 20.9864 3.34484C18.6983 3.03422 16.7514 2.87891 15.1483 2.87891C11.9423 2.87891 9.43788 3.2034 7.6407 3.8496C5.84353 4.49581 4.47901 5.5497 3.54715 7.01129C2.61528 8.47288 1.90529 10.5502 1.41439 13.2376L0.327216 19.4833C-0.113756 22.1486 -0.105436 24.237 0.34663 25.7485C0.798697 27.2627 1.81377 28.3499 3.39184 29.0072C4.96991 29.6673 7.31067 29.9973 10.4141 29.9973C12.1225 29.9973 14.1638 29.9141 16.5434 29.745C18.4154 29.6118 19.9131 29.4593 21.0335 29.2873C21.53 29.2097 21.9127 28.8214 21.9959 28.3277L22.9056 22.9251C23.0248 22.2151 22.4785 21.5578 21.7574 21.5634C21.358 21.5634 20.9586 21.5634 20.5593 21.5578C19.6912 21.5467 18.8203 21.5523 17.9412 21.5773C17.0869 21.5523 16.2216 21.544 15.3425 21.5578C14.4633 21.5717 13.5703 21.5773 12.6661 21.5773C11.8896 21.5773 11.3321 21.5051 10.9965 21.3637C10.661 21.2223 10.4918 21.0142 10.4918 20.7425C10.4918 20.4707 10.5445 20.0241 10.6471 19.4029L11.7343 13.0407V12.963C11.8369 12.5498 11.9423 12.2198 12.0449 11.9729C12.1475 11.7261 12.3222 11.5403 12.5691 11.4099C12.8131 11.2796 13.2347 11.2158 13.831 11.2158C14.4272 11.2158 14.957 11.2213 15.4229 11.2352C15.5838 11.2407 15.7335 11.2574 15.8861 11.2713L14.9265 16.7903C14.8017 17.5059 15.3536 18.1604 16.0774 18.1604H22.9028C23.4686 18.1604 23.9539 17.7527 24.0538 17.1953L24.0482 17.2008Z" fill="#222733"/>
<path d="M43.1071 4.39297L41.8119 11.9172C41.7149 12.4775 41.2295 12.8879 40.661 12.8879H39.0247C38.298 12.8879 37.7489 12.2334 37.8737 11.5206L39.0413 4.79234C39.1661 4.0768 38.6142 3.42505 37.8903 3.42505H30.0194C29.4508 3.42505 28.9655 3.83274 28.8684 4.39297L24.7333 28.2055C24.6085 28.921 25.1604 29.5756 25.8842 29.5756H33.7552C34.3237 29.5756 34.8091 29.1679 34.9061 28.6076L36.1403 21.5049C36.2374 20.9447 36.7227 20.537 37.2913 20.537H38.9414C39.6653 20.537 40.2172 21.1888 40.0924 21.9043L39.008 28.211C38.886 28.9266 39.4351 29.5783 40.159 29.5783H47.8746C48.4432 29.5783 48.9313 29.1679 49.0256 28.6076L53.1247 4.79511C53.2467 4.07957 52.6976 3.42782 51.9737 3.42782H44.2581C43.6895 3.42782 43.2014 3.83829 43.1071 4.39852V4.39297Z" fill="#222733"/>
<path d="M66.3899 10.7553H74.0307C74.5992 10.7553 75.0846 10.3476 75.1817 9.78735L76.0525 4.79243C76.1773 4.07689 75.6282 3.42236 74.9015 3.42236H57.4485C56.8799 3.42236 56.3946 3.83005 56.2975 4.39028L52.1623 28.2028C52.0375 28.9183 52.5894 29.5729 53.3133 29.5729H70.7303C71.2989 29.5729 71.7842 29.1652 71.8813 28.6049L72.7549 23.61C72.8797 22.8945 72.3306 22.24 71.604 22.24H64.8091C64.0825 22.24 63.5305 21.5827 63.6581 20.8644L63.7053 20.6009C63.8051 20.0434 64.2905 19.6385 64.8562 19.6385H72.1254C72.6939 19.6385 73.182 19.228 73.2763 18.6678L73.9253 14.8766C74.0473 14.1638 73.4982 13.512 72.7743 13.512H66.3095C65.5746 13.512 65.0199 12.8381 65.1641 12.117L65.2473 11.701C65.3555 11.1519 65.8353 10.758 66.3927 10.758L66.3899 10.7553Z" fill="#222733"/>
<path d="M97.4105 10.4807L98.3729 4.78688C98.4922 4.07412 97.943 3.42236 97.2192 3.42236H79.9131C79.3445 3.42236 78.8592 3.83005 78.7621 4.39028L74.6269 28.2028C74.5021 28.9183 75.054 29.5729 75.7779 29.5729H83.6461C84.2146 29.5729 84.7027 29.1624 84.797 28.6022L85.9369 21.9682C86.034 21.4079 86.5193 20.9975 87.0879 20.9975H93.6941C94.2627 20.9975 94.748 20.5898 94.8451 20.0296L95.5634 15.9277C95.6882 15.2121 95.1391 14.5576 94.4125 14.5576H88.6354C87.9033 14.5576 87.3514 13.892 87.4873 13.1737L87.6315 12.4082C87.7341 11.8563 88.2167 11.4542 88.7797 11.4542H96.2512C96.8226 11.4542 97.3079 11.0437 97.405 10.4807H97.4105Z" fill="#222733"/>
<path d="M188.933 6.21526C189.055 5.46644 189.269 4.86739 189.565 4.41809C189.865 3.9688 190.273 3.63876 190.789 3.42799C191.304 3.21721 191.953 3.11182 192.738 3.11182C193.523 3.11182 194.158 3.21721 194.599 3.42799C195.04 3.63876 195.331 3.9688 195.478 4.41809C195.623 4.86739 195.639 5.46644 195.526 6.21526C195.384 6.97241 195.162 7.57978 194.86 8.0374C194.555 8.49501 194.147 8.82505 193.631 9.0275C193.115 9.22996 192.458 9.32981 191.657 9.32981C190.855 9.32981 190.262 9.22996 189.821 9.0275C189.38 8.82505 189.088 8.49501 188.941 8.0374C188.797 7.57978 188.794 6.97241 188.936 6.21526H188.933ZM190.029 6.21526C189.915 6.77827 189.898 7.20537 189.976 7.49658C190.056 7.78779 190.239 7.99025 190.525 8.10396C190.811 8.21767 191.249 8.27591 191.84 8.27591C192.43 8.27591 192.913 8.21767 193.24 8.10396C193.565 7.99025 193.82 7.78779 194 7.49658C194.18 7.20537 194.325 6.78104 194.43 6.21526C194.519 5.6689 194.522 5.25289 194.444 4.96723C194.363 4.68157 194.18 4.47911 193.895 4.3654C193.609 4.25169 193.163 4.19345 192.552 4.19345C191.942 4.19345 191.493 4.25169 191.166 4.3654C190.841 4.47911 190.592 4.68157 190.42 4.96723C190.248 5.25289 190.117 5.6689 190.029 6.21526ZM190.966 4.78973H192.247L191.784 7.45775H190.503L190.966 4.78973ZM191.23 5.99062H192.974L192.83 6.85038H191.085L191.23 5.99062ZM192.272 5.99062H192.3C192.389 5.99062 192.453 5.97952 192.497 5.95734C192.541 5.93515 192.569 5.89632 192.577 5.84363V5.79093C192.594 5.74656 192.588 5.71328 192.558 5.69109C192.527 5.6689 192.453 5.65781 192.339 5.65781H191.651L191.795 4.78696H192.838C193.243 4.78696 193.534 4.8452 193.709 4.96446C193.884 5.08371 193.947 5.26676 193.895 5.51359L193.881 5.61898C193.853 5.8048 193.748 5.94902 193.556 6.05441C193.365 6.1598 193.104 6.21249 192.769 6.21249H192.2L192.267 5.98785L192.272 5.99062ZM192.364 7.00846C192.372 6.94745 192.358 6.90307 192.325 6.88366C192.289 6.86147 192.222 6.85038 192.125 6.85038H192.1L192.192 6.243H192.772C193.115 6.243 193.365 6.29015 193.526 6.38722C193.684 6.48429 193.742 6.64237 193.698 6.86147L193.606 7.45498H192.297L192.364 7.00569V7.00846Z" fill="#222733"/>
<path d="M122.332 5.60231L120.935 13.4538L120.538 15.7114L120.294 17.0815C120.2 17.6251 119.723 18.0217 119.168 18.0217H112.506C111.799 18.0217 111.258 17.3838 111.38 16.6876L111.461 16.2273L111.68 14.9737L112.318 11.3017C112.168 11.2823 112.024 11.2684 111.866 11.2628C111.411 11.2462 110.895 11.2434 110.313 11.2434C109.73 11.2434 109.322 11.3044 109.081 11.4348C108.84 11.5596 108.671 11.7399 108.574 11.9812C108.471 12.2197 108.371 12.5442 108.271 12.9491V13.0212L107.947 14.9099L107.833 15.5783L107.209 19.2309C107.109 19.8382 107.059 20.2709 107.059 20.5399C107.059 20.8089 107.22 21.0058 107.55 21.1445C107.88 21.2832 108.424 21.3497 109.181 21.3497C110.066 21.3497 110.937 21.347 111.794 21.3303C112.653 21.3192 113.499 21.3276 114.334 21.3497C115.191 21.3276 116.04 21.3192 116.888 21.3303C117.279 21.3387 117.673 21.3414 118.059 21.3387C118.763 21.3359 119.298 21.9738 119.179 22.6699L118.292 27.9421C118.211 28.4247 117.831 28.8075 117.351 28.8796C116.256 29.0487 114.797 29.1985 112.967 29.3261C110.64 29.4897 108.648 29.5701 106.984 29.5701C103.956 29.5701 101.668 29.2484 100.129 28.605C98.5865 27.9616 97.5964 26.8993 97.1527 25.4211C96.7117 23.9457 96.7062 21.9017 97.1333 19.303L98.1927 13.2015C98.6087 10.9245 99.1911 9.09681 99.9261 7.72397C100.045 7.51319 100.159 7.31351 100.278 7.12214C100.553 6.69226 100.864 6.30398 101.213 5.94344C102.028 5.11419 103.049 4.47908 104.278 4.03533C105.276 3.68034 106.496 3.42241 107.944 3.26987C109.034 3.15061 110.26 3.0896 111.61 3.0896C113.175 3.0896 115.072 3.24214 117.31 3.54444C118.067 3.64706 118.769 3.75522 119.409 3.86615C120.178 3.99928 120.863 4.13795 121.467 4.28217C122.055 4.42361 122.438 4.99493 122.335 5.59399L122.332 5.60231Z" fill="#222733"/>
<path d="M129.934 28.3055L130.52 26.0701C130.65 25.5681 131.105 25.2187 131.623 25.2187H133.207C133.878 25.2187 134.402 25.7928 134.344 26.4612L134.214 27.9172C134.156 28.5856 134.68 29.1597 135.351 29.1597H143.03C143.649 29.1597 144.156 28.666 144.17 28.0476L144.756 4.79807C144.772 4.15741 144.256 3.62769 143.616 3.62769H128.797C128.301 3.62769 127.863 3.94663 127.71 4.41811L120.225 27.6676C119.986 28.4053 120.538 29.1597 121.312 29.1597H128.828C129.346 29.1597 129.801 28.8103 129.932 28.3083L129.934 28.3055ZM132.736 17.614L134.1 12.4055C134.186 12.0755 134.483 11.8453 134.824 11.8453C135.265 11.8453 135.609 12.2225 135.57 12.6607L135.096 18.0023C135.043 18.5902 134.549 19.0423 133.959 19.0423H133.839C133.091 19.0423 132.547 18.3351 132.736 17.6112V17.614Z" fill="#222733"/>
<path d="M149.556 29.1569H157.089C157.644 29.1569 158.118 28.7575 158.212 28.2111L160.9 12.827C160.994 12.2807 161.468 11.8813 162.023 11.8813H164.932C165.484 11.8813 165.958 11.4847 166.055 10.9411L167.126 4.9644C167.251 4.2655 166.713 3.62207 166.003 3.62207H148.78C148.225 3.62207 147.751 4.02144 147.656 4.5678L146.616 10.5445C146.494 11.2434 147.032 11.8813 147.74 11.8813H149.861C150.571 11.8813 151.107 12.5219 150.985 13.2181L148.433 27.8173C148.311 28.5162 148.849 29.1541 149.556 29.1541V29.1569Z" fill="#222733"/>
<path d="M166.499 21.9653C166.524 21.8211 166.654 21.7157 166.801 21.7185C168.191 21.7407 169.511 21.7573 170.762 21.7684C172.088 21.7823 173.458 21.7878 174.869 21.7878C175.282 21.7878 175.593 21.7323 175.801 21.6242C176.006 21.516 176.167 21.3801 176.275 21.222C176.384 21.064 176.439 20.8892 176.439 20.6923C176.439 20.4483 176.408 20.2597 176.347 20.1265C176.286 19.9934 176.17 19.8825 176.001 19.7993C175.834 19.7161 175.621 19.6273 175.363 19.533C175.349 19.5275 175.335 19.5247 175.321 19.5219L172.748 18.9423C171.53 18.6511 170.543 18.2489 169.788 17.7359C169.034 17.2255 168.485 16.5294 168.144 15.653C167.803 14.7766 167.633 13.6922 167.633 12.4026C167.633 10.7718 167.938 9.30468 168.546 8.00118C169.153 6.70045 170.243 5.63269 171.816 4.80621C173.385 3.97973 175.571 3.56372 178.372 3.56372C179.953 3.56372 181.398 3.61919 182.699 3.72735C183.919 3.82997 185.231 4.0352 186.634 4.34028C186.789 4.37356 186.895 4.52609 186.867 4.68418L185.827 10.7219C185.802 10.8661 185.672 10.9715 185.525 10.9687C184.282 10.9465 183.115 10.9355 182.022 10.9355H178.552C178.186 10.9355 177.881 10.9715 177.64 11.0436C177.396 11.1157 177.232 11.2322 177.146 11.3903C177.06 11.5484 177.019 11.7508 177.019 11.9921C177.019 12.1863 177.049 12.3527 177.11 12.4858C177.171 12.6189 177.263 12.7188 177.385 12.777C177.504 12.838 177.695 12.9157 177.959 13.01C177.967 13.01 177.973 13.0155 177.981 13.0183L180.416 13.7089C181.731 14.075 182.771 14.5242 183.539 15.0595C184.307 15.5948 184.873 16.277 185.236 17.1035C185.602 17.9328 185.785 18.9894 185.785 20.2818C185.785 21.9126 185.475 23.3853 184.854 24.6999C184.232 26.0145 183.12 27.085 181.512 27.9143C179.906 28.7408 177.726 29.1568 174.975 29.1568C173.075 29.1568 171.475 29.0708 170.171 28.9016C168.937 28.7408 167.448 28.5022 165.7 28.1888C165.539 28.1583 165.429 28.003 165.456 27.8422L166.494 21.9598L166.499 21.9653Z" fill="#222733"/>
<path d="M124.587 1.91929L122.155 7.60756L120.208 15.8085L111.466 16.2218L111.685 14.9682L112.323 11.2962C112.173 11.2768 112.029 11.2629 111.871 11.2574C111.416 11.2407 110.9 11.238 110.318 11.238C109.736 11.238 109.328 11.299 109.087 11.4293C108.845 11.5541 108.676 11.7344 108.579 11.9757C108.476 12.2142 108.377 12.5387 108.277 12.9436V13.0157L107.952 14.9044L107.839 15.5728L100.822 14.0724L101.152 7.55764L105.897 9.37145L111.228 10.3893L106.083 8.94434L101.313 6.3623L101.232 5.98789L101.221 5.94628L99.7014 -0.00268555L105.589 3.32264L107.95 3.27271L111.952 3.18397H112.002L118.267 4.30165L119.415 3.869L124.596 1.91652L124.587 1.91929Z" fill="#222733"/>
</g>
<defs>
<clipPath id="clip0_1334_4284">
<rect width="195.598" height="30" fill="white"/>
</clipPath>
</defs>
</svg>
